<?xml version="1.0" encoding="UTF-8"?>
<svg id="Layer_1" data-name="Layer 1" xmlns="http://www.w3.org/2000/svg"
    viewBox="-48 -48 1028 896">
    <path
        d="M551.313,792.538l375.794-381.005c6.525-6.615,6.525-17.342,0-23.999l-55.159-55.926c-6.525-6.613-17.105-6.613-23.67,0l-364.546,369.6c-9.786,9.921-25.676,9.921-35.505,0l-122.155-123.85c-9.786-9.921-9.786-26.034,0-35.998l122.155-123.85c9.786-9.921,25.678-9.921,35.505,0l49.265,49.947c6.523,6.615,17.104,6.615,23.67,0l55.161-55.925c6.523-6.615,6.523-17.342,0-23.999l-128.053-129.829c-9.787-9.921-25.678-9.921-35.505,0l-285.715,289.677c-6.524,6.613-6.524,17.34,0,23.997l218.133,221.158c4.726,4.791,11.082,7.462,17.731,7.462h135.12c6.649,0,13.048-2.671,17.733-7.462h.041Z" />
    <path
        d="M714.285,307.653l55.161-55.925c6.523-6.615,6.523-17.342,0-23.999L552.149,7.462c-4.726-4.791-11.082-7.462-17.731-7.462h-136.836c-6.649,0-13.046,2.671-17.731,7.462L4.893,387.578c-6.524,6.613-6.524,17.34,0,23.997l55.161,55.926c6.524,6.613,17.104,6.613,23.67,0L448.226,97.901c9.787-9.922,25.678-9.922,35.505,0l206.884,209.752c6.525,6.615,17.105,6.615,23.67,0Z" />
</svg>
